<svg xmlns="http://www.w3.org/2000/svg" width="1200" height="630" viewBox="0 0 1200 630" fill="none">
  <defs>
    <radialGradient id="bg" cx="0" cy="0" r="1" gradientUnits="userSpaceOnUse" gradientTransform="translate(880 230) rotate(145) scale(760 560)">
      <stop stop-color="#121827"/>
      <stop offset=".48" stop-color="#05070B"/>
      <stop offset="1" stop-color="#000"/>
    </radialGradient>
    <linearGradient id="rule" x1="78" y1="438" x2="548" y2="438" gradientUnits="userSpaceOnUse">
      <stop stop-color="#97A9EB"/>
      <stop offset="1" stop-color="#E8FF9C" stop-opacity=".62"/>
    </linearGradient>
    <pattern id="grid" width="72" height="72" patternUnits="userSpaceOnUse">
      <path d="M72 0H0V72" stroke="white" stroke-opacity=".032"/>
    </pattern>
  </defs>

  <rect width="1200" height="630" fill="url(#bg)"/>
  <rect width="1200" height="630" fill="url(#grid)"/>

  <g stroke="#97A9EB" stroke-width="1.1" stroke-opacity=".18" fill="none">
    <path d="M72 498C178 418 264 514 386 440C520 358 610 444 744 330C866 226 982 262 1132 144"/>
    <path d="M44 174C188 260 298 104 448 162C630 232 724 96 890 162C1010 210 1082 198 1160 160"/>
  </g>
  <g fill="#E8FF9C" opacity=".72">
    <circle cx="184" cy="176" r="2"/>
    <circle cx="430" cy="441" r="2"/>
    <circle cx="1008" cy="188" r="2"/>
  </g>

  <g transform="translate(760 122) scale(6.2)">
    <ellipse cx="32" cy="32" rx="11" ry="25" transform="rotate(45 32 32)" stroke="#97A9EB" stroke-width="2"/>
    <ellipse cx="32" cy="32" rx="11" ry="25" transform="rotate(-45 32 32)" stroke="#E8FF9C" stroke-width="2"/>
    <circle cx="32" cy="32" r="3" fill="#fff"/>
  </g>

  <text x="78" y="92" fill="#97A9EB" font-family="Geist" font-size="16" font-weight="500" letter-spacing="3.2">
    TECHNOLOGY THINK-AND-DO TANK
  </text>
  <text x="74" y="304" fill="#FFFFFF" font-family="Roobert PRO" font-size="82" font-weight="500" letter-spacing="-2.6">
    Mothership Ventures
  </text>
  <text x="78" y="368" fill="#D8DAD6" font-family="Roobert PRO" font-size="32" font-weight="400" letter-spacing="-.25">
    Nonlinear thinking, made operational.
  </text>
  <path d="M78 438H548" stroke="url(#rule)" stroke-width="1.2"/>
  <text x="78" y="490" fill="#A3A8B4" font-family="Geist" font-size="15" font-weight="500" letter-spacing="2.2">
    ORIGINATE / BUILD / COMPOUND
  </text>
</svg>
