<svg xmlns="http://www.w3.org/2000/svg" width="1200" height="630" viewBox="0 0 1200 630" fill="none">
  <defs>
    <radialGradient id="bg" cx="0" cy="0" r="1" gradientUnits="userSpaceOnUse" gradientTransform="translate(934 316) rotate(164) scale(1090 620)">
      <stop stop-color="#141C30"/>
      <stop offset=".48" stop-color="#070A11"/>
      <stop offset="1" stop-color="#000000"/>
    </radialGradient>
    <radialGradient id="coreGlow" cx="0" cy="0" r="1" gradientUnits="userSpaceOnUse" gradientTransform="translate(938 316) scale(224 224)">
      <stop stop-color="#9FB0F0" stop-opacity=".22"/>
      <stop offset=".42" stop-color="#6E7FC8" stop-opacity=".08"/>
      <stop offset="1" stop-color="#000000" stop-opacity="0"/>
    </radialGradient>
    <linearGradient id="thread" x1="210" y1="316" x2="938" y2="316" gradientUnits="userSpaceOnUse">
      <stop stop-color="#97A9EB" stop-opacity="0"/>
      <stop offset=".30" stop-color="#97A9EB" stop-opacity=".12"/>
      <stop offset=".82" stop-color="#97A9EB" stop-opacity=".62"/>
      <stop offset="1" stop-color="#C7D2F6" stop-opacity=".92"/>
    </linearGradient>
    <linearGradient id="threadGreen" x1="310" y1="316" x2="938" y2="316" gradientUnits="userSpaceOnUse">
      <stop stop-color="#E8FF9C" stop-opacity="0"/>
      <stop offset=".48" stop-color="#E8FF9C" stop-opacity=".15"/>
      <stop offset=".88" stop-color="#E8FF9C" stop-opacity=".54"/>
      <stop offset="1" stop-color="#F2FFC4" stop-opacity=".84"/>
    </linearGradient>
    <pattern id="grid" width="72" height="72" patternUnits="userSpaceOnUse">
      <path d="M72 0H0V72" stroke="#FFFFFF" stroke-opacity=".022"/>
    </pattern>
    <filter id="soft" x="-80%" y="-80%" width="260%" height="260%">
      <feGaussianBlur stdDeviation="12"/>
    </filter>
  </defs>

  <rect width="1200" height="630" fill="url(#bg)"/>
  <rect width="1200" height="630" fill="url(#grid)"/>
  <rect width="1200" height="630" fill="url(#coreGlow)"/>

  <g stroke="#97A9EB" stroke-opacity=".11" stroke-width="1" fill="none">
    <path d="M766 72V558"/>
    <path d="M938 52V578"/>
    <path d="M626 316H1138"/>
  </g>

  <g fill="none">
    <path d="M166 118C382 102 650 208 938 316" stroke="url(#thread)" stroke-width="1.45" stroke-opacity=".72"/>
    <path d="M208 514C426 540 714 420 938 316" stroke="url(#thread)" stroke-width="1.3" stroke-opacity=".64"/>
    <path d="M314 64C504 54 758 158 938 316" stroke="url(#threadGreen)" stroke-width="1.4"/>
    <path d="M426 578C602 592 794 448 938 316" stroke="url(#thread)" stroke-width="1.25" stroke-opacity=".52"/>
    <path d="M518 168C670 130 812 222 938 316" stroke="url(#thread)" stroke-width="1.65"/>
    <path d="M590 470C734 506 840 404 938 316" stroke="url(#thread)" stroke-width="1.2" stroke-opacity=".52"/>
    <path d="M724 108C804 116 890 218 938 316" stroke="url(#threadGreen)" stroke-width="1.3"/>
    <path d="M752 538C844 514 906 408 938 316" stroke="url(#thread)" stroke-width="1.4"/>
  </g>

  <g fill="#070A11" stroke="#97A9EB" stroke-width="1.2">
    <circle cx="518" cy="168" r="6.5"/><circle cx="650" cy="208" r="5.8"/><circle cx="758" cy="158" r="5.4"/>
    <circle cx="812" cy="222" r="5.8"/><circle cx="714" cy="420" r="5.4"/><circle cx="840" cy="404" r="5"/>
  </g>
  <g fill="#E8FF9C"><circle cx="518" cy="168" r="2.2"/><circle cx="758" cy="158" r="2.2"/><circle cx="812" cy="222" r="1.9"/></g>

  <circle cx="938" cy="316" r="42" fill="#9FB0F0" opacity=".18" filter="url(#soft)"/>
  <g transform="translate(837 215) scale(3.15)">
    <ellipse cx="32" cy="32" rx="11" ry="25" transform="rotate(45 32 32)" stroke="#97A9EB" stroke-width="1.5"/>
    <ellipse cx="32" cy="32" rx="11" ry="25" transform="rotate(-45 32 32)" stroke="#E8FF9C" stroke-width="1.5"/>
    <circle cx="32" cy="32" r="3.2" fill="#FFFFFF"/>
  </g>

  <g transform="translate(82 0)">
    <text x="2" y="142" fill="#C7D2F6" font-family="Geist Mono" font-size="19" font-weight="500" letter-spacing="4.2">TECHNOLOGY THINK-AND-DO TANK</text>
    <text x="-3" y="294" fill="#FFFFFF" font-family="Roobert PRO" font-size="80" font-weight="500" letter-spacing="-2.2">Mothership Ventures</text>
    <text x="0" y="370" fill="#C5C9D6" font-family="Roobert PRO" font-size="38" font-weight="400" letter-spacing="-.55">Nonlinear thinking, made operational.</text>
  </g>
</svg>
